<?xml version="1.0" encoding="iso-8859-1"?>
<!-- Generator: Adobe Illustrator 19.0.0, SVG Export Plug-In . SVG Version: 6.00 Build 0)  -->
<svg version="1.1" id="Capa_1" xmlns="http://www.w3.org/2000/svg" xmlns:xlink="http://www.w3.org/1999/xlink" x="0px" y="0px"
	 viewBox="0 0 511.999 511.999" style="enable-background:new 0 0 511.999 511.999;" xml:space="preserve">
<g>
	<path style="fill:#E85454;" d="M149.71,394.952h-24.061c-0.695,0-1.259-0.563-1.259-1.259V290.901c0-0.695,0.563-1.259,1.259-1.259
		h24.061c0.695,0,1.259,0.563,1.259,1.259v102.793C150.967,394.388,150.405,394.952,149.71,394.952z"/>
	<path style="fill:#E85454;" d="M365.25,317.742c0,0.93-0.971,1.543-1.806,1.133c-3.307-1.627-10.678-4.688-20.555-4.688
		c-17.174,0-29.094,11.967-29.094,28.097c0,15.649,11.402,28.108,29.094,28.108c9.773,0,17.219-3.033,20.561-4.654
		c0.833-0.404,1.799,0.21,1.799,1.136v25.247c0,0.562-0.371,1.056-0.911,1.21c-3.899,1.112-12.443,3.493-23.3,3.493
		c-29.898,0-56.133-20.608-56.133-54.54c0-31.455,23.74-54.515,56.133-54.515c11.282,0,19.922,2.485,23.321,3.509
		c0.532,0.16,0.89,0.648,0.89,1.204L365.25,317.742L365.25,317.742z"/>
	<path style="fill:#E85454;" d="M87.858,317.736c0,0.931-0.972,1.544-1.807,1.132c-3.3-1.629-10.654-4.681-20.517-4.681
		c-17.213,0-29.126,11.967-29.126,28.097c0,15.649,11.418,28.108,29.126,28.108c9.754,0,17.189-3.023,20.524-4.646
		c0.834-0.406,1.801,0.208,1.801,1.135v25.242c0,0.561-0.369,1.054-0.909,1.209c-3.87,1.112-12.411,3.491-23.324,3.491
		c-29.873,0-56.077-20.608-56.077-54.54c0-31.455,23.737-54.515,56.077-54.515c11.316,0,19.956,2.484,23.343,3.508
		c0.531,0.161,0.889,0.648,0.889,1.203C87.858,292.479,87.858,317.736,87.858,317.736z"/>
	<path style="fill:#E85454;" d="M504.5,342.284c0,30.126-23.259,54.54-55.645,54.54c-32.39,0-55.619-24.414-55.619-54.54
		c0-30.082,23.23-54.515,55.619-54.515C481.241,287.77,504.5,312.202,504.5,342.284 M448.855,314.585
		c-15.765,0-27.475,12.405-27.475,27.699c0,15.327,11.71,27.721,27.475,27.721c15.747,0,27.489-12.394,27.489-27.721
		C476.344,326.99,464.602,314.585,448.855,314.585"/>
	<path style="fill:#E85454;" d="M251.753,311.94c0,0.821-0.768,1.422-1.564,1.221c-3.452-0.873-11.958-2.799-19.215-2.799
		c-10.652,0-16.434,3.568-16.434,8.634c0,6.414,7.807,8.642,12.184,10.025c7.999,2.55,32.435,8.276,32.435,32.462
		c0,26.453-23.261,35.341-43.598,35.341c-12.382,0-24.069-1.993-27.663-2.674c-0.593-0.112-1.021-0.632-1.021-1.236v-21.565
		c0-0.826,0.78-1.43,1.579-1.217c4.052,1.081,13.615,3.502,23.519,3.502c13.219,0,19.3-3.876,19.3-9.837
		c0-7.629-10.426-10.01-17.526-12.322c-14.804-4.683-27.14-13.379-27.14-30.81c0-19.698,14.741-32.929,39.241-32.929
		c11.15,0,21.73,2.332,24.951,3.116c0.564,0.137,0.954,0.641,0.954,1.221L251.753,311.94L251.753,311.94z"/>
</g>
<g>
	<path style="fill:#D84848;" d="M147.556,393.693V290.901c0-0.695,0.563-1.259,1.259-1.259h-23.166
		c-0.695,0-1.258,0.563-1.258,1.259v102.793c0,0.695,0.563,1.259,1.258,1.259h23.166
		C148.119,394.952,147.556,394.388,147.556,393.693z"/>
	<path style="fill:#D84848;" d="M363.445,318.875c0.834,0.411,1.805-0.203,1.805-1.133v-3.538c-3.51,0.078-6.794,0.654-9.789,1.672
		C359.034,316.853,361.766,318.049,363.445,318.875z"/>
	<path style="fill:#D84848;" d="M308.071,342.284c0-27.752,18.485-48.957,45.082-53.568c-3.506-0.544-7.593-0.946-12.115-0.946
		c-32.393,0-56.133,23.059-56.133,54.515c0,33.932,26.236,54.54,56.133,54.54c4.488,0,8.571-0.409,12.104-0.965
		C328.122,391.428,308.071,371.948,308.071,342.284z"/>
	<path style="fill:#D84848;" d="M365.25,366.874c0-0.926-0.966-1.54-1.799-1.136c-1.694,0.822-4.446,2.005-8.017,2.973
		c2.981,1.012,6.27,1.586,9.816,1.663V366.874z"/>
	<path style="fill:#D84848;" d="M30.714,342.284c0-27.754,18.485-48.96,45.049-53.569c-3.509-0.544-7.604-0.945-12.138-0.945
		c-32.341,0-56.078,23.059-56.078,54.515c0,33.932,26.204,54.54,56.078,54.54c4.504,0,8.595-0.408,12.129-0.962
		C50.75,391.437,30.714,371.955,30.714,342.284z"/>
	<path style="fill:#D84848;" d="M416.401,342.284c0-26.357,17.834-48.375,44.036-53.424c-3.704-0.714-7.573-1.091-11.583-1.091
		c-32.39,0-55.619,24.432-55.619,54.515c0,30.126,23.23,54.54,55.619,54.54c4.01,0,7.88-0.377,11.583-1.09
		C434.236,390.688,416.401,368.68,416.401,342.284z"/>
	<path style="fill:#D84848;" d="M250.19,313.161c0.796,0.201,1.564-0.4,1.564-1.221v-1.507c-3.014,0.165-5.574,0.644-7.644,1.383
		C246.664,312.307,248.825,312.816,250.19,313.161z"/>
</g>
<g>
	<path style="fill:#777777;" d="M29.184,197.096c0-5.956-4.855-10.783-10.816-10.783c-5.954,0-10.82,4.827-10.82,10.783v22.662
		c0,5.987,4.866,10.814,10.82,10.814c5.961,0,10.816-4.827,10.816-10.814V197.096z"/>
	<path style="fill:#777777;" d="M88.608,167.341c0-5.951-4.858-10.788-10.817-10.788c-5.96,0-10.82,4.836-10.82,10.788v52.417
		c0,5.987,4.86,10.814,10.82,10.814c5.959,0,10.817-4.827,10.817-10.814V167.341z"/>
	<path style="fill:#777777;" d="M148.033,126.634c0-5.95-4.862-10.779-10.821-10.779c-5.958,0-10.82,4.829-10.82,10.779v114.668
		c0,5.982,4.862,10.814,10.82,10.814c5.959,0,10.821-4.831,10.821-10.814V126.634z"/>
</g>
<g>
	<path style="fill:#646566;" d="M19.714,219.758v-22.662c0-3.703,1.883-6.969,4.738-8.91c-1.735-1.181-3.83-1.873-6.084-1.873
		c-5.954,0-10.82,4.827-10.82,10.783v22.662c0,5.987,4.866,10.814,10.82,10.814c2.254,0,4.349-0.692,6.084-1.875
		C21.598,226.754,19.714,223.481,19.714,219.758z"/>
	<path style="fill:#646566;" d="M79.138,219.758v-52.417c0-3.701,1.881-6.969,4.736-8.913c-1.735-1.182-3.829-1.875-6.082-1.875
		c-5.96,0-10.82,4.836-10.82,10.788v52.417c0,5.987,4.86,10.814,10.82,10.814c2.253,0,4.347-0.692,6.082-1.874
		C81.019,226.754,79.138,223.481,79.138,219.758z"/>
	<path style="fill:#646566;" d="M138.559,241.302V126.634c0-3.7,1.882-6.965,4.737-8.906c-1.736-1.18-3.831-1.872-6.084-1.872
		c-5.958,0-10.82,4.829-10.82,10.779v114.668c0,5.982,4.862,10.814,10.82,10.814c2.253,0,4.348-0.692,6.084-1.875
		C140.441,248.295,138.559,245.022,138.559,241.302z"/>
</g>
<path style="fill:#777777;" d="M266.843,197.096c0-5.956-4.855-10.783-10.816-10.783c-5.954,0-10.82,4.827-10.82,10.783v22.662
	c0,5.987,4.866,10.814,10.82,10.814c5.961,0,10.816-4.827,10.816-10.814V197.096z"/>
<path style="fill:#646566;" d="M257.374,219.758v-22.662c0-3.703,1.883-6.969,4.738-8.91c-1.735-1.181-3.83-1.873-6.084-1.873
	c-5.954,0-10.82,4.827-10.82,10.783v22.662c0,5.987,4.866,10.814,10.82,10.814c2.254,0,4.349-0.692,6.084-1.875
	C259.257,226.754,257.374,223.481,257.374,219.758z"/>
<path style="fill:#777777;" d="M207.438,167.341c0-5.951-4.858-10.788-10.817-10.788c-5.96,0-10.82,4.836-10.82,10.788v52.417
	c0,5.987,4.86,10.814,10.82,10.814c5.959,0,10.817-4.827,10.817-10.814L207.438,167.341L207.438,167.341z"/>
<path style="fill:#646566;" d="M197.968,219.758v-52.417c0-3.701,1.881-6.969,4.736-8.913c-1.735-1.182-3.829-1.875-6.082-1.875
	c-5.96,0-10.82,4.836-10.82,10.788v52.417c0,5.987,4.86,10.814,10.82,10.814c2.253,0,4.347-0.692,6.082-1.874
	C199.849,226.754,197.968,223.481,197.968,219.758z"/>
<g>
	<path style="fill:#777777;" d="M326.248,167.341c0-5.951-4.858-10.788-10.817-10.788c-5.96,0-10.82,4.836-10.82,10.788v52.417
		c0,5.987,4.86,10.814,10.82,10.814c5.959,0,10.817-4.827,10.817-10.814V167.341z"/>
	<path style="fill:#777777;" d="M385.673,126.634c0-5.95-4.862-10.779-10.821-10.779c-5.958,0-10.82,4.829-10.82,10.779v114.668
		c0,5.982,4.862,10.814,10.82,10.814c5.959,0,10.821-4.831,10.821-10.814V126.634z"/>
</g>
<g>
	<path style="fill:#646566;" d="M316.779,219.758v-52.417c0-3.701,1.881-6.969,4.736-8.913c-1.735-1.182-3.829-1.875-6.082-1.875
		c-5.96,0-10.82,4.836-10.82,10.788v52.417c0,5.987,4.86,10.814,10.82,10.814c2.253,0,4.347-0.692,6.082-1.874
		C318.66,226.754,316.779,223.481,316.779,219.758z"/>
	<path style="fill:#646566;" d="M376.2,241.302V126.634c0-3.7,1.882-6.965,4.737-8.906c-1.736-1.18-3.831-1.872-6.084-1.872
		c-5.958,0-10.82,4.829-10.82,10.779v114.668c0,5.982,4.862,10.814,10.82,10.814c2.253,0,4.348-0.692,6.084-1.875
		C378.082,248.295,376.2,245.022,376.2,241.302z"/>
</g>
<path style="fill:#777777;" d="M504.484,197.096c0-5.956-4.855-10.783-10.816-10.783c-5.954,0-10.82,4.827-10.82,10.783v22.662
	c0,5.987,4.866,10.814,10.82,10.814c5.961,0,10.816-4.827,10.816-10.814V197.096z"/>
<path style="fill:#646566;" d="M495.014,219.758v-22.662c0-3.703,1.883-6.969,4.738-8.91c-1.735-1.181-3.83-1.873-6.084-1.873
	c-5.954,0-10.82,4.827-10.82,10.783v22.662c0,5.987,4.866,10.814,10.82,10.814c2.254,0,4.349-0.692,6.084-1.875
	C496.897,226.754,495.014,223.481,495.014,219.758z"/>
<path style="fill:#777777;" d="M445.079,167.341c0-5.951-4.858-10.788-10.817-10.788c-5.96,0-10.82,4.836-10.82,10.788v52.417
	c0,5.987,4.86,10.814,10.82,10.814c5.959,0,10.817-4.827,10.817-10.814V167.341z"/>
<path style="fill:#646566;" d="M435.609,219.758v-52.417c0-3.701,1.881-6.969,4.736-8.913c-1.735-1.182-3.829-1.875-6.082-1.875
	c-5.96,0-10.82,4.836-10.82,10.788v52.417c0,5.987,4.86,10.814,10.82,10.814c2.253,0,4.347-0.692,6.082-1.874
	C437.49,226.754,435.609,223.481,435.609,219.758z"/>
<g>
	<path style="fill:#D84848;" d="M224.055,355.068c-28.567-27.02-9.089-52.393-9.089-52.393l0.001,0.001
		c4.845-7.168,12.931-12.135,23.641-14.052c-3.867-0.504-8.263-0.886-12.762-0.886c-24.499,0-39.241,13.23-39.241,32.929
		C186.607,347.797,216.426,351.502,224.055,355.068z"/>
	<path style="fill:#D84848;" d="M210.04,373.604c-9.197-0.28-17.799-2.461-21.587-3.471c-0.798-0.213-1.579,0.391-1.579,1.217
		v21.565c0,0.604,0.428,1.124,1.021,1.236c3.098,0.587,12.215,2.146,22.601,2.566C207.67,385.73,210.04,373.604,210.04,373.604z"/>
</g>
<path d="M116.89,394.595c0,4.143,3.358,7.5,7.5,7.5h26.578c4.142,0,7.5-3.357,7.5-7.5v-105.31c0-4.143-3.358-7.5-7.5-7.5h-26.578
	c-4.142,0-7.5,3.357-7.5,7.5C116.89,289.285,116.89,394.595,116.89,394.595z M131.889,296.785h11.579v90.31h-11.579V296.785z"/>
<path d="M296.705,387.462c11.667,10.644,27.411,16.504,44.332,16.504c12.108,0,21.541-2.691,25.569-3.841l0.669-0.19
	c3.236-0.908,5.473-3.859,5.473-7.221V364.45c0-5.496-5.86-9.421-11.226-6.512c-3.167,1.717-9.799,4.597-18.635,4.597
	c-12.715,0-21.594-8.475-21.594-20.608c0-19.74,21.468-25.921,40.526-15.799c4.979,2.562,10.929-1.06,10.929-6.67v-28.269
	c0-3.138-1.841-6.135-5.839-7.332c-3.224-0.976-13.035-3.945-25.873-3.945C278.342,279.912,258.556,352.656,296.705,387.462z
	 M357.75,308.361c-4.784-1.341-9.793-2.032-14.86-2.032c-21.204,0-36.594,14.971-36.594,35.598
	c0,20.633,15.389,35.608,36.594,35.608c5.002,0,10.053-0.703,14.86-2.037v11.464c-4.153,0.986-9.905,2.006-16.711,2.006
	c-24.167,0-48.633-16.157-48.633-47.04c0-31.689,27.77-54.029,65.346-45.035L357.75,308.361L357.75,308.361z"/>
<path d="M19.327,387.459c16.031,14.64,40.177,21.221,69.992,12.64l0.59-0.17c3.225-0.916,5.45-3.861,5.45-7.214V364.45
	c0-2.649-1.397-5.102-3.676-6.452c-6.759-4.008-9.335,4.537-26.148,4.537c-12.733,0-21.626-8.475-21.626-20.608
	c0-20.229,22.249-25.641,40.478-15.821c4.986,2.605,10.974-1.02,10.974-6.647v-28.27c0-3.314-2.176-6.236-5.352-7.186l-0.44-0.134
	c-25.542-7.764-52.668-4.516-71.334,13.626C-6.486,321.522-6.022,364.308,19.327,387.459z M80.358,296.896v11.454
	c-29.429-8.239-51.451,9.002-51.451,33.578c0,24.699,22.105,41.761,51.451,33.588v11.449c-35.096,8.287-65.311-11.002-65.311-45.036
	C15.048,310.53,42.389,287.87,80.358,296.896z"/>
<path d="M211.973,365.777c-9.502,0-18.752-2.486-22.234-3.423c-6.785-1.823-10.363,2.889-10.363,7v24.236
	c0,3.545,2.482,6.606,5.951,7.338c0.144,0.031,14.572,3.038,30.233,3.038c23.572,0,51.099-11.22,51.099-42.841
	c0-17.302-11.341-31.236-30.329-37.271c-8.363-2.664-12.069-3.707-13.818-4.942c6.049-3.064,20.564-0.391,27.065,1.484
	c4.815,1.46,9.677-2.152,9.677-7.177v-22.483c0-3.377-2.257-6.338-5.514-7.232c-0.132-0.036-13.369-3.625-27.892-3.625
	c-27.957,0-46.74,16.246-46.74,40.429c0,12.646,5.618,29.497,32.318,37.942c5.471,1.78,10.89,3.246,12.349,5.19
	c0,0.009,0,0.018,0,0.024C223.419,363.801,220.928,365.777,211.973,365.777z M221.732,345.812
	c-9.853-3.273-27.625-7.388-27.625-25.504c0-16.178,12.675-30.686,50.146-23.549v7.096c-4.027-0.727-8.792-1.35-13.279-1.35
	c-17.646,0-23.935,8.334-23.935,16.133c0,13.182,14.141,16.133,24.739,19.509c12.82,4.075,19.879,12.235,19.879,22.978
	c0,25.833-27.631,27.841-36.1,27.841c-8.15,0-16.034-0.925-21.184-1.695v-8.394c18.455,3.716,44.397,3.285,44.397-15.437
	C238.772,355.313,233.04,349.383,221.732,345.812z"/>
<path d="M0.049,219.4c0,10.099,8.218,18.313,18.319,18.313c10.1,0,18.315-8.216,18.315-18.313v-22.662
	c0-10.081-8.217-18.282-18.315-18.282c-10.102,0-18.319,8.202-18.319,18.282C0.049,196.738,0.049,219.4,0.049,219.4z
	 M15.048,196.738c0-1.811,1.489-3.283,3.32-3.283c1.829,0,3.316,1.473,3.316,3.283V219.4c0,4.378-6.636,4.38-6.636,0V196.738z"/>
<path d="M59.472,166.984v52.417c0,10.099,8.218,18.313,18.319,18.313c10.1,0,18.316-8.216,18.316-18.313v-52.417
	c0-10.084-8.217-18.286-18.316-18.286C67.689,148.697,59.472,156.901,59.472,166.984z M81.108,166.984v52.417
	c0,1.827-1.488,3.314-3.317,3.314c-1.831,0-3.32-1.487-3.32-3.314v-52.417c0-1.813,1.489-3.287,3.32-3.287
	C79.62,163.696,81.108,165.171,81.108,166.984z"/>
<path d="M214.953,219.4v-52.417c0-10.084-8.218-18.286-18.319-18.286c-10.1,0-18.315,8.203-18.315,18.286V219.4
	c0,10.099,8.217,18.313,18.315,18.313C206.736,237.715,214.953,229.499,214.953,219.4z M193.317,219.4v-52.417
	c0-1.813,1.488-3.287,3.316-3.287c1.831,0,3.32,1.475,3.32,3.287V219.4c0,1.827-1.489,3.314-3.32,3.314
	C194.805,222.715,193.317,221.228,193.317,219.4z"/>
<path d="M274.309,219.4v-22.662c0-10.081-8.189-18.282-18.254-18.282c-10.099,0-18.314,8.202-18.314,18.282V219.4
	c0,10.099,8.216,18.313,18.314,18.313C266.12,237.715,274.309,229.499,274.309,219.4z M259.31,219.4c0,1.827-1.46,3.314-3.255,3.314
	c-1.828,0-3.315-1.487-3.315-3.314v-22.662c0-4.268,6.57-4.396,6.57,0V219.4z"/>
<path d="M315.473,148.697c-10.082,0-18.282,8.203-18.282,18.286V219.4c0,10.099,8.202,18.313,18.282,18.313
	c10.081,0,18.282-8.216,18.282-18.313v-52.417C333.756,156.901,325.554,148.697,315.473,148.697z M318.757,219.4
	c0,1.827-1.473,3.314-3.283,3.314s-3.283-1.487-3.283-3.314v-52.417c0-1.813,1.473-3.287,3.283-3.287s3.283,1.475,3.283,3.287V219.4
	z"/>
<path d="M393.22,240.944V126.277c0-10.079-8.202-18.277-18.282-18.277c-10.083,0-18.285,8.199-18.285,18.277v114.668
	c0,10.099,8.203,18.313,18.285,18.313C385.018,259.258,393.22,251.042,393.22,240.944z M371.652,240.944V126.277
	c0-4.331,6.569-4.333,6.569,0v114.668C378.22,245.322,371.652,245.324,371.652,240.944z"/>
<path d="M434.253,148.697c-10.083,0-18.285,8.203-18.285,18.286V219.4c0,10.099,8.203,18.313,18.285,18.313
	c10.157,0,18.419-8.216,18.419-18.313v-52.417C452.672,156.901,444.409,148.697,434.253,148.697z M437.672,219.4
	c0,1.858-1.502,3.314-3.42,3.314c-1.812,0-3.286-1.487-3.286-3.314v-52.417c0-1.813,1.474-3.287,3.286-3.287
	c1.917,0,3.42,1.444,3.42,3.287V219.4z"/>
<path d="M493.716,178.456c-10.09,0-18.297,8.202-18.297,18.282V219.4c0,10.099,8.208,18.313,18.297,18.313
	c10.082,0,18.282-8.216,18.282-18.313v-22.662C512,186.658,503.798,178.456,493.716,178.456z M497,219.4
	c0,4.388-6.582,4.371-6.582,0v-22.662c0-4.328,6.582-4.349,6.582,0V219.4z"/>
<path d="M148.033,175.956c4.142,0,7.5-3.357,7.5-7.5v-42.181c0-10.079-8.219-18.277-18.32-18.277
	c-10.102,0-18.319,8.199-18.319,18.277v114.668c0,10.099,8.218,18.313,18.319,18.313c10.103,0,18.32-8.216,18.32-18.313v-37.489
	c0-4.143-3.358-7.5-7.5-7.5c-4.142,0-7.5,3.357-7.5,7.5v37.489c0,1.827-1.49,3.314-3.321,3.314c-1.831,0-3.32-1.487-3.32-3.314
	V126.277c0-1.808,1.489-3.278,3.32-3.278c1.832,0,3.321,1.471,3.321,3.278v42.181C140.533,172.599,143.891,175.956,148.033,175.956z
	"/>
<path d="M468.56,282.808c-3.96-1.212-8.154,1.017-9.365,4.979c-1.211,3.961,1.017,8.154,4.979,9.365
	c49.791,15.229,41.434,91.816-15.318,91.816c-56.776,0-65.047-76.629-15.296-91.823c3.962-1.21,6.192-5.402,4.982-9.363
	c-1.21-3.962-5.402-6.191-9.363-4.982c-25.984,7.936-43.441,31.697-43.441,59.128c0,58.953,71.345,80.94,108.391,43.868
	C525.763,354.138,514.233,296.776,468.56,282.808z"/>
<path d="M413.88,341.927c0,19.749,15.362,35.221,34.975,35.221c19.62,0,34.989-15.471,34.989-35.221
	c0-19.737-15.369-35.199-34.989-35.199C429.243,306.728,413.88,322.189,413.88,341.927z M468.844,341.927
	c0,11.528-8.594,20.221-19.989,20.221c-11.388,0-19.975-8.693-19.975-20.221c0-11.516,8.587-20.199,19.975-20.199
	C460.251,321.728,468.844,330.411,468.844,341.927z"/>
<g>
</g>
<g>
</g>
<g>
</g>
<g>
</g>
<g>
</g>
<g>
</g>
<g>
</g>
<g>
</g>
<g>
</g>
<g>
</g>
<g>
</g>
<g>
</g>
<g>
</g>
<g>
</g>
<g>
</g>
</svg>
